solid Created by Gmsh
facet normal 7.81381e-17 -0.707107 -0.707107
  outer loop
    vertex 80.5488 103.904 36.0963
    vertex 65.4719 107.074 32.9262
    vertex 80.7545 110.258 29.7424
  endloop
endfacet
facet normal -4.94875e-16 -0.707107 -0.707107
  outer loop
    vertex -80.5488 103.904 36.0963
    vertex -80.7545 110.258 29.7424
    vertex -65.4719 107.074 32.9262
  endloop
endfacet
facet normal 5.75928e-17 -0.707107 -0.707107
  outer loop
    vertex 65.4719 107.074 32.9262
    vertex 72 114.142 25.8579
    vertex 80.7545 110.258 29.7424
  endloop
endfacet
facet normal -5.18335e-16 -0.707107 -0.707107
  outer loop
    vertex -65.4719 107.074 32.9262
    vertex -80.7545 110.258 29.7424
    vertex -72 114.142 25.8579
  endloop
endfacet
facet normal 2.9226e-17 -0.707107 -0.707107
  outer loop
    vertex 72 100 40
    vertex 65.4719 107.074 32.9262
    vertex 80.5488 103.904 36.0963
  endloop
endfacet
facet normal -4.38389e-16 -0.707107 -0.707107
  outer loop
    vertex -72 100 40
    vertex -80.5488 103.904 36.0963
    vertex -65.4719 107.074 32.9262
  endloop
endfacet
facet normal 2.2554e-16 -0.707107 -0.707107
  outer loop
    vertex 90 100 40
    vertex 80.5488 103.904 36.0963
    vertex 90 107.071 32.9289
  endloop
endfacet
facet normal 3.75901e-17 -0.707107 -0.707107
  outer loop
    vertex -90 100 40
    vertex -90 107.071 32.9289
    vertex -80.5488 103.904 36.0963
  endloop
endfacet
facet normal -3.53524e-15 -0.707107 -0.707107
  outer loop
    vertex -90 114.142 25.8579
    vertex -80.7545 110.258 29.7424
    vertex -90 107.071 32.9289
  endloop
endfacet
facet normal 4.38062e-15 -0.707107 -0.707107
  outer loop
    vertex 90 114.142 25.8579
    vertex 90 107.071 32.9289
    vertex 80.7545 110.258 29.7424
  endloop
endfacet
facet normal 2.76322e-16 -0.707107 -0.707107
  outer loop
    vertex 36 114.142 25.8579
    vertex 45 107.071 32.9289
    vertex 27 107.071 32.9289
  endloop
endfacet
facet normal 2.76322e-16 -0.707107 -0.707107
  outer loop
    vertex 36 100 40
    vertex 27 107.071 32.9289
    vertex 45 107.071 32.9289
  endloop
endfacet
facet normal 0 -0.707107 -0.707107
  outer loop
    vertex -36 100 40
    vertex -45 107.071 32.9289
    vertex -27 107.071 32.9289
  endloop
endfacet
facet normal 2.76322e-16 -0.707107 -0.707107
  outer loop
    vertex 18 114.142 25.8579
    vertex 27 107.071 32.9289
    vertex 9 107.071 32.9289
  endloop
endfacet
facet normal 1.39564e-16 -0.707107 -0.707107
  outer loop
    vertex 54 114.142 25.8579
    vertex 72 114.142 25.8579
    vertex 65.4719 107.074 32.9262
  endloop
endfacet
facet normal 2.79128e-16 -0.707107 -0.707107
  outer loop
    vertex 54 100 40
    vertex 65.4719 107.074 32.9262
    vertex 72 100 40
  endloop
endfacet
facet normal 2.76322e-16 -0.707107 -0.707107
  outer loop
    vertex 18 100 40
    vertex 9 107.071 32.9289
    vertex 27 107.071 32.9289
  endloop
endfacet
facet normal 0 -0.707107 -0.707107
  outer loop
    vertex -36 114.142 25.8579
    vertex -18 114.142 25.8579
    vertex -27 107.071 32.9289
  endloop
endfacet
facet normal 0 -0.707107 -0.707107
  outer loop
    vertex -36 114.142 25.8579
    vertex -27 107.071 32.9289
    vertex -45 107.071 32.9289
  endloop
endfacet
facet normal 0 -0.707107 -0.707107
  outer loop
    vertex -36 100 40
    vertex -27 107.071 32.9289
    vertex -18 100 40
  endloop
endfacet
facet normal 1.39564e-16 -0.707107 -0.707107
  outer loop
    vertex -18 114.142 25.8579
    vertex 8.52651e-14 114.142 25.8579
    vertex -9 107.071 32.9289
  endloop
endfacet
facet normal 0 -0.707107 -0.707107
  outer loop
    vertex -18 100 40
    vertex -9 107.071 32.9289
    vertex 8.52651e-14 100 40
  endloop
endfacet
facet normal 2.76322e-16 -0.707107 -0.707107
  outer loop
    vertex -18 114.142 25.8579
    vertex -9 107.071 32.9289
    vertex -27 107.071 32.9289
  endloop
endfacet
facet normal 1.39564e-16 -0.707107 -0.707107
  outer loop
    vertex 18 114.142 25.8579
    vertex 36 114.142 25.8579
    vertex 27 107.071 32.9289
  endloop
endfacet
facet normal 0 -0.707107 -0.707107
  outer loop
    vertex 8.52651e-14 100 40
    vertex -9 107.071 32.9289
    vertex 9 107.071 32.9289
  endloop
endfacet
facet normal 0 -0.707107 -0.707107
  outer loop
    vertex 18 100 40
    vertex 27 107.071 32.9289
    vertex 36 100 40
  endloop
endfacet
facet normal 0 -0.707107 -0.707107
  outer loop
    vertex 8.52651e-14 114.142 25.8579
    vertex 9 107.071 32.9289
    vertex -9 107.071 32.9289
  endloop
endfacet
facet normal 2.76322e-16 -0.707107 -0.707107
  outer loop
    vertex -18 100 40
    vertex -27 107.071 32.9289
    vertex -9 107.071 32.9289
  endloop
endfacet
facet normal 0 -0.707107 -0.707107
  outer loop
    vertex 36 114.142 25.8579
    vertex 54 114.142 25.8579
    vertex 45 107.071 32.9289
  endloop
endfacet
facet normal 0 -0.707107 -0.707107
  outer loop
    vertex -72 114.142 25.8579
    vertex -54 114.142 25.8579
    vertex -65.4719 107.074 32.9262
  endloop
endfacet
facet normal 1.39564e-16 -0.707107 -0.707107
  outer loop
    vertex -54 114.142 25.8579
    vertex -36 114.142 25.8579
    vertex -45 107.071 32.9289
  endloop
endfacet
facet normal 0 -0.707107 -0.707107
  outer loop
    vertex 8.52651e-14 114.142 25.8579
    vertex 18 114.142 25.8579
    vertex 9 107.071 32.9289
  endloop
endfacet
facet normal 2.79128e-16 -0.707107 -0.707107
  outer loop
    vertex -72 100 40
    vertex -65.4719 107.074 32.9262
    vertex -54 100 40
  endloop
endfacet
facet normal 0 -0.707107 -0.707107
  outer loop
    vertex -54 100 40
    vertex -45 107.071 32.9289
    vertex -36 100 40
  endloop
endfacet
facet normal 2.79128e-16 -0.707107 -0.707107
  outer loop
    vertex 8.52651e-14 100 40
    vertex 9 107.071 32.9289
    vertex 18 100 40
  endloop
endfacet
facet normal 0 -0.707107 -0.707107
  outer loop
    vertex 36 100 40
    vertex 45 107.071 32.9289
    vertex 54 100 40
  endloop
endfacet
facet normal 2.42999e-16 -0.707107 -0.707107
  outer loop
    vertex -54 114.142 25.8579
    vertex -45 107.071 32.9289
    vertex -65.4719 107.074 32.9262
  endloop
endfacet
facet normal 2.42916e-16 -0.707107 -0.707107
  outer loop
    vertex -54 100 40
    vertex -65.4719 107.074 32.9262
    vertex -45 107.071 32.9289
  endloop
endfacet
facet normal -2.77713e-16 -0.707107 -0.707107
  outer loop
    vertex 54 114.142 25.8579
    vertex 65.4719 107.074 32.9262
    vertex 45 107.071 32.9289
  endloop
endfacet
facet normal -2.42916e-16 -0.707107 -0.707107
  outer loop
    vertex 54 100 40
    vertex 45 107.071 32.9289
    vertex 65.4719 107.074 32.9262
  endloop
endfacet
facet normal 4.01767e-16 -0.707107 -0.707107
  outer loop
    vertex 90 107.071 32.9289
    vertex 80.5488 103.904 36.0963
    vertex 80.7545 110.258 29.7424
  endloop
endfacet
facet normal 2.74893e-16 -0.707107 -0.707107
  outer loop
    vertex -90 107.071 32.9289
    vertex -80.7545 110.258 29.7424
    vertex -80.5488 103.904 36.0963
  endloop
endfacet
facet normal -4.46604e-15 -0.707107 -0.707107
  outer loop
    vertex -90 114.142 25.8579
    vertex -72 114.142 25.8579
    vertex -80.7545 110.258 29.7424
  endloop
endfacet
facet normal 4.74517e-15 -0.707107 -0.707107
  outer loop
    vertex 90 114.142 25.8579
    vertex 80.7545 110.258 29.7424
    vertex 72 114.142 25.8579
  endloop
endfacet
facet normal -2.79128e-16 -0.707107 -0.707107
  outer loop
    vertex -90 100 40
    vertex -80.5488 103.904 36.0963
    vertex -72 100 40
  endloop
endfacet
facet normal 1.01613e-30 -0.707107 -0.707107
  outer loop
    vertex 90 100 40
    vertex 72 100 40
    vertex 80.5488 103.904 36.0963
  endloop
endfacet
facet normal 5.61423e-16 -0.707107 0.707107
  outer loop
    vertex 72 135.355 75.3553
    vertex 56.3523 124.218 64.2177
    vertex 75.534 125.288 65.2885
  endloop
endfacet
facet normal -3.18644e-16 -0.707107 0.707107
  outer loop
    vertex 72 100 40
    vertex 75.534 110.067 50.0668
    vertex 57.131 111.185 51.1855
  endloop
endfacet
facet normal 2.65713e-16 -0.707107 0.707107
  outer loop
    vertex -59.9102 110 49.9996
    vertex -42.9996 109.526 49.5256
    vertex -47.1454 122.361 62.3609
  endloop
endfacet
facet normal -4.37018e-16 -0.707107 0.707107
  outer loop
    vertex -67.0315 118.415 58.4146
    vertex -59.9102 110 49.9996
    vertex -47.1454 122.361 62.3609
  endloop
endfacet
facet normal 0 -0.707107 0.707107
  outer loop
    vertex 54 135.355 75.3553
    vertex 56.3523 124.218 64.2177
    vertex 72 135.355 75.3553
  endloop
endfacet
facet normal -2.79128e-16 -0.707107 0.707107
  outer loop
    vertex 54 100 40
    vertex 72 100 40
    vertex 57.131 111.185 51.1855
  endloop
endfacet
facet normal 0 -0.707107 0.707107
  outer loop
    vertex -54 135.355 75.3553
    vertex -47.1454 122.361 62.3609
    vertex -36 135.355 75.3553
  endloop
endfacet
facet normal 6.31209e-16 -0.707107 0.707107
  outer loop
    vertex 65.5679 117.678 57.6777
    vertex 75.534 125.288 65.2885
    vertex 56.3523 124.218 64.2177
  endloop
endfacet
facet normal -2.72819e-16 -0.707107 0.707107
  outer loop
    vertex 65.5679 117.678 57.6777
    vertex 57.131 111.185 51.1855
    vertex 75.534 110.067 50.0668
  endloop
endfacet
facet normal -2.98838e-16 -0.707107 0.707107
  outer loop
    vertex -27.214 117.429 57.4292
    vertex -47.1454 122.361 62.3609
    vertex -42.9996 109.526 49.5256
  endloop
endfacet
facet normal 2.97014e-16 -0.707107 0.707107
  outer loop
    vertex -36 135.355 75.3553
    vertex -47.1454 122.361 62.3609
    vertex -27.172 127.435 67.4349
  endloop
endfacet
facet normal 0 -0.707107 0.707107
  outer loop
    vertex -27.214 117.429 57.4292
    vertex -9 112.275 52.2754
    vertex -9 124.693 64.6927
  endloop
endfacet
facet normal 2.69746e-16 -0.707107 0.707107
  outer loop
    vertex 9 117.678 57.6777
    vertex -9 124.693 64.6927
    vertex -9 112.275 52.2754
  endloop
endfacet
facet normal 0 -0.707107 0.707107
  outer loop
    vertex -18 100 40
    vertex 8.52651e-14 100 40
    vertex -9 112.275 52.2754
  endloop
endfacet
facet normal 0 -0.707107 0.707107
  outer loop
    vertex -27.214 117.429 57.4292
    vertex -27.172 127.435 67.4349
    vertex -47.1454 122.361 62.3609
  endloop
endfacet
facet normal 3.08391e-15 -0.707107 0.707107
  outer loop
    vertex -90 135.355 75.3553
    vertex -90 123.57 63.5702
    vertex -77.0053 126.26 66.2602
  endloop
endfacet
facet normal -8.70346e-16 -0.707107 0.707107
  outer loop
    vertex -90 100 40
    vertex -76.2846 109.696 49.6964
    vertex -90 111.785 51.7851
  endloop
endfacet
facet normal -1.35566e-15 -0.707107 0.707107
  outer loop
    vertex 90 135.355 75.3553
    vertex 75.534 125.288 65.2885
    vertex 90 123.57 63.5702
  endloop
endfacet
facet normal 1.47354e-15 -0.707107 0.707107
  outer loop
    vertex 90 100 40
    vertex 90 111.785 51.7851
    vertex 75.534 110.067 50.0668
  endloop
endfacet
facet normal -1.33981e-14 -0.707107 0.707107
  outer loop
    vertex 90 135.355 75.3553
    vertex 72 135.355 75.3553
    vertex 75.534 125.288 65.2885
  endloop
endfacet
facet normal 1.11651e-15 -0.707107 0.707107
  outer loop
    vertex 90 100 40
    vertex 75.534 110.067 50.0668
    vertex 72 100 40
  endloop
endfacet
facet normal -8.37383e-16 -0.707107 0.707107
  outer loop
    vertex -90 100 40
    vertex -72 100 40
    vertex -76.2846 109.696 49.6964
  endloop
endfacet
facet normal 1.28399e-14 -0.707107 0.707107
  outer loop
    vertex -90 135.355 75.3553
    vertex -77.0053 126.26 66.2602
    vertex -72 135.355 75.3553
  endloop
endfacet
facet normal 0 -0.707107 0.707107
  outer loop
    vertex 18 100 40
    vertex 36 100 40
    vertex 25.3013 110.817 50.8165
  endloop
endfacet
facet normal -4.52706e-16 -0.707107 0.707107
  outer loop
    vertex -27.214 117.429 57.4292
    vertex -42.9996 109.526 49.5256
    vertex -27 107.693 47.6933
  endloop
endfacet
facet normal 0 -0.707107 0.707107
  outer loop
    vertex 18 135.355 75.3553
    vertex 25.3178 124.487 64.4866
    vertex 36 135.355 75.3553
  endloop
endfacet
facet normal -2.79565e-16 -0.707107 0.707107
  outer loop
    vertex 9 117.678 57.6777
    vertex 9 127.662 67.662
    vertex -9 124.693 64.6927
  endloop
endfacet
facet normal 0 -0.707107 0.707107
  outer loop
    vertex -27.214 117.429 57.4292
    vertex -9 124.693 64.6927
    vertex -27.172 127.435 67.4349
  endloop
endfacet
facet normal 4.19348e-16 -0.707107 0.707107
  outer loop
    vertex 9 117.678 57.6777
    vertex -9 112.275 52.2754
    vertex 9 107.693 47.6933
  endloop
endfacet
facet normal -3.13616e-16 -0.707107 0.707107
  outer loop
    vertex -27.214 117.429 57.4292
    vertex -27 107.693 47.6933
    vertex -9 112.275 52.2754
  endloop
endfacet
facet normal 2.79565e-16 -0.707107 0.707107
  outer loop
    vertex 8.52651e-14 100 40
    vertex 9 107.693 47.6933
    vertex -9 112.275 52.2754
  endloop
endfacet
facet normal -2.79565e-16 -0.707107 0.707107
  outer loop
    vertex -18 100 40
    vertex -9 112.275 52.2754
    vertex -27 107.693 47.6933
  endloop
endfacet
facet normal -1.57746e-16 -0.707107 0.707107
  outer loop
    vertex 9 117.678 57.6777
    vertex 25.3013 110.817 50.8165
    vertex 25.3178 124.487 64.4866
  endloop
endfacet
facet normal -2.54684e-16 -0.707107 0.707107
  outer loop
    vertex -54 135.355 75.3553
    vertex -61.8371 127.188 67.1883
    vertex -47.1454 122.361 62.3609
  endloop
endfacet
facet normal -3.26306e-16 -0.707107 0.707107
  outer loop
    vertex -67.0315 118.415 58.4146
    vertex -47.1454 122.361 62.3609
    vertex -61.8371 127.188 67.1883
  endloop
endfacet
facet normal 0 -0.707107 0.707107
  outer loop
    vertex -18 135.355 75.3553
    vertex -9 124.693 64.6927
    vertex 8.52651e-14 135.355 75.3553
  endloop
endfacet
facet normal -5.20659e-16 -0.707107 0.707107
  outer loop
    vertex 39.4279 117.738 57.7382
    vertex 25.3178 124.487 64.4866
    vertex 25.3013 110.817 50.8165
  endloop
endfacet
facet normal -4.7788e-16 -0.707107 0.707107
  outer loop
    vertex 36 100 40
    vertex 41.453 108.245 48.2449
    vertex 25.3013 110.817 50.8165
  endloop
endfacet
facet normal 0 -0.707107 0.707107
  outer loop
    vertex -54 100 40
    vertex -36 100 40
    vertex -42.9996 109.526 49.5256
  endloop
endfacet
facet normal -3.56583e-16 -0.707107 0.707107
  outer loop
    vertex -18 135.355 75.3553
    vertex -27.172 127.435 67.4349
    vertex -9 124.693 64.6927
  endloop
endfacet
facet normal -3.04128e-16 -0.707107 0.707107
  outer loop
    vertex 8.52651e-14 135.355 75.3553
    vertex -9 124.693 64.6927
    vertex 9 127.662 67.662
  endloop
endfacet
facet normal -2.8951e-16 -0.707107 0.707107
  outer loop
    vertex 39.4279 117.738 57.7382
    vertex 57.131 111.185 51.1855
    vertex 56.3523 124.218 64.2177
  endloop
endfacet
facet normal 1.13586e-15 -0.707107 0.707107
  outer loop
    vertex 65.5679 117.678 57.6777
    vertex 56.3523 124.218 64.2177
    vertex 57.131 111.185 51.1855
  endloop
endfacet
facet normal 3.08385e-16 -0.707107 0.707107
  outer loop
    vertex 9 117.678 57.6777
    vertex 25.3178 124.487 64.4866
    vertex 9 127.662 67.662
  endloop
endfacet
facet normal -3.47421e-16 -0.707107 0.707107
  outer loop
    vertex 36 135.355 75.3553
    vertex 25.3178 124.487 64.4866
    vertex 41.1239 127.031 67.0306
  endloop
endfacet
facet normal 0 -0.707107 0.707107
  outer loop
    vertex 36 100 40
    vertex 54 100 40
    vertex 41.453 108.245 48.2449
  endloop
endfacet
facet normal 0 -0.707107 0.707107
  outer loop
    vertex 36 135.355 75.3553
    vertex 41.1239 127.031 67.0306
    vertex 54 135.355 75.3553
  endloop
endfacet
facet normal -2.87965e-16 -0.707107 0.707107
  outer loop
    vertex -36 100 40
    vertex -27 107.693 47.6933
    vertex -42.9996 109.526 49.5256
  endloop
endfacet
facet normal 2.60804e-16 -0.707107 0.707107
  outer loop
    vertex 18 135.355 75.3553
    vertex 9 127.662 67.662
    vertex 25.3178 124.487 64.4866
  endloop
endfacet
facet normal -2.61819e-16 -0.707107 0.707107
  outer loop
    vertex 18 100 40
    vertex 25.3013 110.817 50.8165
    vertex 9 107.693 47.6933
  endloop
endfacet
facet normal -1.85218e-16 -0.707107 0.707107
  outer loop
    vertex 9 117.678 57.6777
    vertex 9 107.693 47.6933
    vertex 25.3013 110.817 50.8165
  endloop
endfacet
facet normal 3.02126e-16 -0.707107 0.707107
  outer loop
    vertex -54 100 40
    vertex -42.9996 109.526 49.5256
    vertex -59.9102 110 49.9996
  endloop
endfacet
facet normal 0 -0.707107 0.707107
  outer loop
    vertex -72 135.355 75.3553
    vertex -61.8371 127.188 67.1883
    vertex -54 135.355 75.3553
  endloop
endfacet
facet normal -2.79128e-16 -0.707107 0.707107
  outer loop
    vertex -72 100 40
    vertex -54 100 40
    vertex -59.9102 110 49.9996
  endloop
endfacet
facet normal -4.0703e-16 -0.707107 0.707107
  outer loop
    vertex 39.4279 117.738 57.7382
    vertex 25.3013 110.817 50.8165
    vertex 41.453 108.245 48.2449
  endloop
endfacet
facet normal 1.81428e-16 -0.707107 0.707107
  outer loop
    vertex 54 100 40
    vertex 57.131 111.185 51.1855
    vertex 41.453 108.245 48.2449
  endloop
endfacet
facet normal -6.78163e-16 -0.707107 0.707107
  outer loop
    vertex 54 135.355 75.3553
    vertex 41.1239 127.031 67.0306
    vertex 56.3523 124.218 64.2177
  endloop
endfacet
facet normal 0 -0.707107 0.707107
  outer loop
    vertex -36 100 40
    vertex -18 100 40
    vertex -27 107.693 47.6933
  endloop
endfacet
facet normal -5.58255e-16 -0.707107 0.707107
  outer loop
    vertex -36 135.355 75.3553
    vertex -27.172 127.435 67.4349
    vertex -18 135.355 75.3553
  endloop
endfacet
facet normal 0 -0.707107 0.707107
  outer loop
    vertex 8.52651e-14 135.355 75.3553
    vertex 9 127.662 67.662
    vertex 18 135.355 75.3553
  endloop
endfacet
facet normal -2.79128e-16 -0.707107 0.707107
  outer loop
    vertex 8.52651e-14 100 40
    vertex 18 100 40
    vertex 9 107.693 47.6933
  endloop
endfacet
facet normal -5.63887e-16 -0.707107 0.707107
  outer loop
    vertex 39.4279 117.738 57.7382
    vertex 41.1239 127.031 67.0306
    vertex 25.3178 124.487 64.4866
  endloop
endfacet
facet normal -1.80215e-15 -0.707107 0.707107
  outer loop
    vertex -90 111.785 51.7851
    vertex -80.0643 117.945 57.9453
    vertex -90 123.57 63.5702
  endloop
endfacet
facet normal 1.92227e-15 -0.707107 0.707107
  outer loop
    vertex 90 111.785 51.7851
    vertex 90 123.57 63.5702
    vertex 80.6852 117.678 57.6777
  endloop
endfacet
facet normal 7.53771e-17 -0.707107 0.707107
  outer loop
    vertex -72 135.355 75.3553
    vertex -77.0053 126.26 66.2602
    vertex -61.8371 127.188 67.1883
  endloop
endfacet
facet normal -3.13877e-16 -0.707107 0.707107
  outer loop
    vertex -72 100 40
    vertex -59.9102 110 49.9996
    vertex -76.2846 109.696 49.6964
  endloop
endfacet
facet normal -3.32355e-16 -0.707107 0.707107
  outer loop
    vertex 65.5679 117.678 57.6777
    vertex 80.6852 117.678 57.6777
    vertex 75.534 125.288 65.2885
  endloop
endfacet
facet normal -3.32355e-16 -0.707107 0.707107
  outer loop
    vertex 65.5679 117.678 57.6777
    vertex 75.534 110.067 50.0668
    vertex 80.6852 117.678 57.6777
  endloop
endfacet
facet normal 4.11131e-16 -0.707107 0.707107
  outer loop
    vertex -67.0315 118.415 58.4146
    vertex -77.0053 126.26 66.2602
    vertex -80.0643 117.945 57.9453
  endloop
endfacet
facet normal 4.19533e-16 -0.707107 0.707107
  outer loop
    vertex -67.0315 118.415 58.4146
    vertex -80.0643 117.945 57.9453
    vertex -76.2846 109.696 49.6964
  endloop
endfacet
facet normal -3.59004e-16 -0.707107 0.707107
  outer loop
    vertex -67.0315 118.415 58.4146
    vertex -76.2846 109.696 49.6964
    vertex -59.9102 110 49.9996
  endloop
endfacet
facet normal 7.83457e-17 -0.707107 0.707107
  outer loop
    vertex -67.0315 118.415 58.4146
    vertex -61.8371 127.188 67.1883
    vertex -77.0053 126.26 66.2602
  endloop
endfacet
facet normal 9.73758e-17 -0.707107 0.707107
  outer loop
    vertex 39.4279 117.738 57.7382
    vertex 41.453 108.245 48.2449
    vertex 57.131 111.185 51.1855
  endloop
endfacet
facet normal -7.21296e-16 -0.707107 0.707107
  outer loop
    vertex 39.4279 117.738 57.7382
    vertex 56.3523 124.218 64.2177
    vertex 41.1239 127.031 67.0306
  endloop
endfacet
facet normal 1.41428e-15 -0.707107 0.707107
  outer loop
    vertex 90 123.57 63.5702
    vertex 75.534 125.288 65.2885
    vertex 80.6852 117.678 57.6777
  endloop
endfacet
facet normal -1.54774e-15 -0.707107 0.707107
  outer loop
    vertex -90 123.57 63.5702
    vertex -80.0643 117.945 57.9453
    vertex -77.0053 126.26 66.2602
  endloop
endfacet
facet normal -9.90608e-16 -0.707107 0.707107
  outer loop
    vertex -90 111.785 51.7851
    vertex -76.2846 109.696 49.6964
    vertex -80.0643 117.945 57.9453
  endloop
endfacet
facet normal 1.51353e-15 -0.707107 0.707107
  outer loop
    vertex 90 111.785 51.7851
    vertex 80.6852 117.678 57.6777
    vertex 75.534 110.067 50.0668
  endloop
endfacet
facet normal -6.77197e-16 0.707107 0.707107
  outer loop
    vertex 80.5488 145.594 65.1169
    vertex 65.4719 142.424 68.287
    vertex 80.7545 139.24 71.4708
  endloop
endfacet
facet normal 6.77197e-16 0.707107 0.707107
  outer loop
    vertex -80.5488 145.594 65.1169
    vertex -80.7545 139.24 71.4708
    vertex -65.4719 142.424 68.287
  endloop
endfacet
facet normal 0 0.707107 0.707107
  outer loop
    vertex 65.4719 142.424 68.287
    vertex 72 135.355 75.3553
    vertex 80.7545 139.24 71.4708
  endloop
endfacet
facet normal 0 0.707107 0.707107
  outer loop
    vertex -65.4719 142.424 68.287
    vertex -80.7545 139.24 71.4708
    vertex -72 135.355 75.3553
  endloop
endfacet
facet normal -5.55293e-16 0.707107 0.707107
  outer loop
    vertex 72 149.497 61.2132
    vertex 65.4719 142.424 68.287
    vertex 80.5488 145.594 65.1169
  endloop
endfacet
facet normal 7.30649e-16 0.707107 0.707107
  outer loop
    vertex -72 149.497 61.2132
    vertex -80.5488 145.594 65.1169
    vertex -65.4719 142.424 68.287
  endloop
endfacet
facet normal 7.74356e-15 0.707107 0.707107
  outer loop
    vertex 90 149.497 61.2132
    vertex 80.5488 145.594 65.1169
    vertex 90 142.426 68.2843
  endloop
endfacet
facet normal -8.345e-15 0.707107 0.707107
  outer loop
    vertex -90 149.497 61.2132
    vertex -90 142.426 68.2843
    vertex -80.5488 145.594 65.1169
  endloop
endfacet
facet normal 7.99271e-15 0.707107 0.707107
  outer loop
    vertex 90 135.355 75.3553
    vertex 90 142.426 68.2843
    vertex 80.7545 139.24 71.4708
  endloop
endfacet
facet normal -9.10708e-15 0.707107 0.707107
  outer loop
    vertex -90 135.355 75.3553
    vertex -80.7545 139.24 71.4708
    vertex -90 142.426 68.2843
  endloop
endfacet
facet normal 0 0.707107 0.707107
  outer loop
    vertex 36 135.355 75.3553
    vertex 45 142.426 68.2843
    vertex 27 142.426 68.2843
  endloop
endfacet
facet normal 0 0.707107 0.707107
  outer loop
    vertex 36 149.497 61.2132
    vertex 27 142.426 68.2843
    vertex 45 142.426 68.2843
  endloop
endfacet
facet normal 0 0.707107 0.707107
  outer loop
    vertex -18 149.497 61.2132
    vertex -27 142.426 68.2843
    vertex -9 142.426 68.2843
  endloop
endfacet
facet normal -0 0.707107 0.707107
  outer loop
    vertex 54 135.355 75.3553
    vertex 72 135.355 75.3553
    vertex 65.4719 142.424 68.287
  endloop
endfacet
facet normal -2.79128e-16 0.707107 0.707107
  outer loop
    vertex 54 149.497 61.2132
    vertex 65.4719 142.424 68.287
    vertex 72 149.497 61.2132
  endloop
endfacet
facet normal -5.92119e-16 0.707107 0.707107
  outer loop
    vertex 18 135.355 75.3553
    vertex 27 142.426 68.2843
    vertex 9 142.426 68.2843
  endloop
endfacet
facet normal 0 0.707107 0.707107
  outer loop
    vertex -36 135.355 75.3553
    vertex -27 142.426 68.2843
    vertex -45 142.426 68.2843
  endloop
endfacet
facet normal 0 0.707107 0.707107
  outer loop
    vertex -18 135.355 75.3553
    vertex -9 142.426 68.2843
    vertex -27 142.426 68.2843
  endloop
endfacet
facet normal -0 0.707107 0.707107
  outer loop
    vertex -36 149.497 61.2132
    vertex -27 142.426 68.2843
    vertex -18 149.497 61.2132
  endloop
endfacet
facet normal -5.58255e-16 0.707107 0.707107
  outer loop
    vertex -36 135.355 75.3553
    vertex -18 135.355 75.3553
    vertex -27 142.426 68.2843
  endloop
endfacet
facet normal -0 0.707107 0.707107
  outer loop
    vertex -18 135.355 75.3553
    vertex 8.52651e-14 135.355 75.3553
    vertex -9 142.426 68.2843
  endloop
endfacet
facet normal -0 0.707107 0.707107
  outer loop
    vertex -18 149.497 61.2132
    vertex -9 142.426 68.2843
    vertex 8.52651e-14 149.497 61.2132
  endloop
endfacet
facet normal -5.52644e-16 0.707107 0.707107
  outer loop
    vertex 18 149.497 61.2132
    vertex 9 142.426 68.2843
    vertex 27 142.426 68.2843
  endloop
endfacet
facet normal -0 0.707107 0.707107
  outer loop
    vertex 18 135.355 75.3553
    vertex 36 135.355 75.3553
    vertex 27 142.426 68.2843
  endloop
endfacet
facet normal -0 0.707107 0.707107
  outer loop
    vertex 18 149.497 61.2132
    vertex 27 142.426 68.2843
    vertex 36 149.497 61.2132
  endloop
endfacet
facet normal 0 0.707107 0.707107
  outer loop
    vertex -36 149.497 61.2132
    vertex -45 142.426 68.2843
    vertex -27 142.426 68.2843
  endloop
endfacet
facet normal -0 0.707107 0.707107
  outer loop
    vertex 8.52651e-14 135.355 75.3553
    vertex 18 135.355 75.3553
    vertex 9 142.426 68.2843
  endloop
endfacet
facet normal -0 0.707107 0.707107
  outer loop
    vertex -54 135.355 75.3553
    vertex -36 135.355 75.3553
    vertex -45 142.426 68.2843
  endloop
endfacet
facet normal -0 0.707107 0.707107
  outer loop
    vertex 36 135.355 75.3553
    vertex 54 135.355 75.3553
    vertex 45 142.426 68.2843
  endloop
endfacet
facet normal -2.79128e-16 0.707107 0.707107
  outer loop
    vertex -72 149.497 61.2132
    vertex -65.4719 142.424 68.287
    vertex -54 149.497 61.2132
  endloop
endfacet
facet normal -0 0.707107 0.707107
  outer loop
    vertex -54 149.497 61.2132
    vertex -45 142.426 68.2843
    vertex -36 149.497 61.2132
  endloop
endfacet
facet normal -2.79128e-16 0.707107 0.707107
  outer loop
    vertex 8.52651e-14 149.497 61.2132
    vertex 9 142.426 68.2843
    vertex 18 149.497 61.2132
  endloop
endfacet
facet normal 0 0.707107 0.707107
  outer loop
    vertex 8.52651e-14 149.497 61.2132
    vertex -9 142.426 68.2843
    vertex 9 142.426 68.2843
  endloop
endfacet
facet normal -0 0.707107 0.707107
  outer loop
    vertex 36 149.497 61.2132
    vertex 45 142.426 68.2843
    vertex 54 149.497 61.2132
  endloop
endfacet
facet normal -4.85997e-16 0.707107 0.707107
  outer loop
    vertex -54 135.355 75.3553
    vertex -45 142.426 68.2843
    vertex -65.4719 142.424 68.287
  endloop
endfacet
facet normal -0 0.707107 0.707107
  outer loop
    vertex -72 135.355 75.3553
    vertex -54 135.355 75.3553
    vertex -65.4719 142.424 68.287
  endloop
endfacet
facet normal 0 0.707107 0.707107
  outer loop
    vertex 8.52651e-14 135.355 75.3553
    vertex 9 142.426 68.2843
    vertex -9 142.426 68.2843
  endloop
endfacet
facet normal -4.85832e-16 0.707107 0.707107
  outer loop
    vertex -54 149.497 61.2132
    vertex -65.4719 142.424 68.287
    vertex -45 142.426 68.2843
  endloop
endfacet
facet normal 4.85997e-16 0.707107 0.707107
  outer loop
    vertex 54 135.355 75.3553
    vertex 65.4719 142.424 68.287
    vertex 45 142.426 68.2843
  endloop
endfacet
facet normal 4.85832e-16 0.707107 0.707107
  outer loop
    vertex 54 149.497 61.2132
    vertex 45 142.426 68.2843
    vertex 65.4719 142.424 68.287
  endloop
endfacet
facet normal -2.13571e-15 0.707107 0.707107
  outer loop
    vertex 90 142.426 68.2843
    vertex 80.5488 145.594 65.1169
    vertex 80.7545 139.24 71.4708
  endloop
endfacet
facet normal 1.05728e-15 0.707107 0.707107
  outer loop
    vertex -90 142.426 68.2843
    vertex -80.7545 139.24 71.4708
    vertex -80.5488 145.594 65.1169
  endloop
endfacet
facet normal -1.17234e-14 0.707107 0.707107
  outer loop
    vertex -90 135.355 75.3553
    vertex -72 135.355 75.3553
    vertex -80.7545 139.24 71.4708
  endloop
endfacet
facet normal 1.11651e-14 0.707107 0.707107
  outer loop
    vertex 90 135.355 75.3553
    vertex 80.7545 139.24 71.4708
    vertex 72 135.355 75.3553
  endloop
endfacet
facet normal -1.00486e-14 0.707107 0.707107
  outer loop
    vertex -90 149.497 61.2132
    vertex -80.5488 145.594 65.1169
    vertex -72 149.497 61.2132
  endloop
endfacet
facet normal 1.03277e-14 0.707107 0.707107
  outer loop
    vertex 90 149.497 61.2132
    vertex 72 149.497 61.2132
    vertex 80.5488 145.594 65.1169
  endloop
endfacet
facet normal 0 0.707107 -0.707107
  outer loop
    vertex -72 149.497 61.2132
    vertex -56.3523 138.36 50.0756
    vertex -75.534 139.431 51.1464
  endloop
endfacet
facet normal 4.24859e-16 0.707107 -0.707107
  outer loop
    vertex -72 114.142 25.8579
    vertex -75.534 124.209 35.9247
    vertex -57.131 125.328 37.0433
  endloop
endfacet
facet normal 0 0.707107 -0.707107
  outer loop
    vertex 59.9044 139.496 51.212
    vertex 47.1313 127.133 38.8484
    vertex 42.9791 139.966 51.6819
  endloop
endfacet
facet normal 6.16532e-16 0.707107 -0.707107
  outer loop
    vertex 67.0315 131.083 42.7986
    vertex 47.1313 127.133 38.8484
    vertex 59.9044 139.496 51.212
  endloop
endfacet
facet normal 0 0.707107 -0.707107
  outer loop
    vertex -72 114.142 25.8579
    vertex -57.131 125.328 37.0433
    vertex -54 114.142 25.8579
  endloop
endfacet
facet normal 2.79128e-16 0.707107 -0.707107
  outer loop
    vertex -72 149.497 61.2132
    vertex -54 149.497 61.2132
    vertex -56.3523 138.36 50.0756
  endloop
endfacet
facet normal 0 0.707107 -0.707107
  outer loop
    vertex 36 114.142 25.8579
    vertex 47.1313 127.133 38.8484
    vertex 54 114.142 25.8579
  endloop
endfacet
facet normal 7.42598e-17 0.707107 -0.707107
  outer loop
    vertex -65.5679 131.82 43.5355
    vertex -75.534 139.431 51.1464
    vertex -56.3523 138.36 50.0756
  endloop
endfacet
facet normal 5.84612e-16 0.707107 -0.707107
  outer loop
    vertex -65.5679 131.82 43.5355
    vertex -57.131 125.328 37.0433
    vertex -75.534 124.209 35.9247
  endloop
endfacet
facet normal 0 0.707107 -0.707107
  outer loop
    vertex 27.0557 132.024 43.7402
    vertex 42.9791 139.966 51.6819
    vertex 47.1313 127.133 38.8484
  endloop
endfacet
facet normal -6.41027e-16 0.707107 -0.707107
  outer loop
    vertex 36 114.142 25.8579
    vertex 27.1139 122.079 33.7949
    vertex 47.1313 127.133 38.8484
  endloop
endfacet
facet normal 1.79276e-16 0.707107 -0.707107
  outer loop
    vertex 27.0557 132.024 43.7402
    vertex 9 126.418 38.1332
    vertex 9 138.835 50.5506
  endloop
endfacet
facet normal 6.74364e-17 0.707107 -0.707107
  outer loop
    vertex -9 131.82 43.5355
    vertex 9 138.835 50.5506
    vertex 9 126.418 38.1332
  endloop
endfacet
facet normal 0 0.707107 -0.707107
  outer loop
    vertex 8.52651e-14 114.142 25.8579
    vertex 9 126.418 38.1332
    vertex 18 114.142 25.8579
  endloop
endfacet
facet normal 0 0.707107 -0.707107
  outer loop
    vertex 27.0557 132.024 43.7402
    vertex 47.1313 127.133 38.8484
    vertex 27.1139 122.079 33.7949
  endloop
endfacet
facet normal -5.30474e-16 0.707107 -0.707107
  outer loop
    vertex -90 149.497 61.2132
    vertex -75.534 139.431 51.1464
    vertex -90 137.712 49.4281
  endloop
endfacet
facet normal 1.49202e-15 0.707107 -0.707107
  outer loop
    vertex 90 149.497 61.2132
    vertex 90 137.712 49.4281
    vertex 76.2846 139.801 51.5168
  endloop
endfacet
facet normal 1.76825e-15 0.707107 -0.707107
  outer loop
    vertex -90 114.142 25.8579
    vertex -90 125.927 37.643
    vertex -75.534 124.209 35.9247
  endloop
endfacet
facet normal -2.82145e-15 0.707107 -0.707107
  outer loop
    vertex 90 114.142 25.8579
    vertex 77.0053 123.237 34.953
    vertex 90 125.927 37.643
  endloop
endfacet
facet normal 1.20025e-14 0.707107 -0.707107
  outer loop
    vertex 90 149.497 61.2132
    vertex 76.2846 139.801 51.5168
    vertex 72 149.497 61.2132
  endloop
endfacet
facet normal -1.22816e-14 0.707107 -0.707107
  outer loop
    vertex -90 149.497 61.2132
    vertex -72 149.497 61.2132
    vertex -75.534 139.431 51.1464
  endloop
endfacet
facet normal -1.95389e-15 0.707107 -0.707107
  outer loop
    vertex 90 114.142 25.8579
    vertex 72 114.142 25.8579
    vertex 77.0053 123.237 34.953
  endloop
endfacet
facet normal 2.23302e-15 0.707107 -0.707107
  outer loop
    vertex -90 114.142 25.8579
    vertex -75.534 124.209 35.9247
    vertex -72 114.142 25.8579
  endloop
endfacet
facet normal 0 0.707107 -0.707107
  outer loop
    vertex -36 114.142 25.8579
    vertex -25.3013 124.959 36.6744
    vertex -18 114.142 25.8579
  endloop
endfacet
facet normal -2.48364e-16 0.707107 -0.707107
  outer loop
    vertex 27.0557 132.024 43.7402
    vertex 26.607 141.964 53.6798
    vertex 42.9791 139.966 51.6819
  endloop
endfacet
facet normal 0 0.707107 -0.707107
  outer loop
    vertex -36 149.497 61.2132
    vertex -18 149.497 61.2132
    vertex -25.3178 138.629 50.3445
  endloop
endfacet
facet normal -5.69612e-17 0.707107 -0.707107
  outer loop
    vertex 27.0557 132.024 43.7402
    vertex 9 138.835 50.5506
    vertex 26.607 141.964 53.6798
  endloop
endfacet
facet normal 1.67739e-16 0.707107 -0.707107
  outer loop
    vertex -9 131.82 43.5355
    vertex -9 141.804 53.5199
    vertex 9 138.835 50.5506
  endloop
endfacet
facet normal 1.09635e-15 0.707107 -0.707107
  outer loop
    vertex 18 114.142 25.8579
    vertex 9 126.418 38.1332
    vertex 27.1139 122.079 33.7949
  endloop
endfacet
facet normal 5.30653e-16 0.707107 -0.707107
  outer loop
    vertex 27.0557 132.024 43.7402
    vertex 27.1139 122.079 33.7949
    vertex 9 126.418 38.1332
  endloop
endfacet
facet normal -4.47304e-16 0.707107 -0.707107
  outer loop
    vertex 8.52651e-14 114.142 25.8579
    vertex -9 121.835 33.5512
    vertex 9 126.418 38.1332
  endloop
endfacet
facet normal -1.39783e-16 0.707107 -0.707107
  outer loop
    vertex -9 131.82 43.5355
    vertex 9 126.418 38.1332
    vertex -9 121.835 33.5512
  endloop
endfacet
facet normal -1.57746e-16 0.707107 -0.707107
  outer loop
    vertex -9 131.82 43.5355
    vertex -25.3013 124.959 36.6744
    vertex -25.3178 138.629 50.3445
  endloop
endfacet
facet normal -6.36368e-17 0.707107 -0.707107
  outer loop
    vertex 54 114.142 25.8579
    vertex 47.1313 127.133 38.8484
    vertex 61.8371 122.309 34.0249
  endloop
endfacet
facet normal 6.52172e-17 0.707107 -0.707107
  outer loop
    vertex 67.0315 131.083 42.7986
    vertex 61.8371 122.309 34.0249
    vertex 47.1313 127.133 38.8484
  endloop
endfacet
facet normal 2.79128e-16 0.707107 -0.707107
  outer loop
    vertex 8.52651e-14 149.497 61.2132
    vertex 18 149.497 61.2132
    vertex 9 138.835 50.5506
  endloop
endfacet
facet normal -1.8223e-16 0.707107 -0.707107
  outer loop
    vertex -39.4279 131.88 43.5961
    vertex -25.3178 138.629 50.3445
    vertex -25.3013 124.959 36.6744
  endloop
endfacet
facet normal -3.41343e-16 0.707107 -0.707107
  outer loop
    vertex -36 114.142 25.8579
    vertex -41.453 122.387 34.1028
    vertex -25.3013 124.959 36.6744
  endloop
endfacet
facet normal 0 0.707107 -0.707107
  outer loop
    vertex 36 149.497 61.2132
    vertex 54 149.497 61.2132
    vertex 42.9791 139.966 51.6819
  endloop
endfacet
facet normal 0 0.707107 -0.707107
  outer loop
    vertex 18 149.497 61.2132
    vertex 26.607 141.964 53.6798
    vertex 9 138.835 50.5506
  endloop
endfacet
facet normal -1.21651e-16 0.707107 -0.707107
  outer loop
    vertex 8.52651e-14 149.497 61.2132
    vertex 9 138.835 50.5506
    vertex -9 141.804 53.5199
  endloop
endfacet
facet normal 5.7902e-16 0.707107 -0.707107
  outer loop
    vertex -39.4279 131.88 43.5961
    vertex -57.131 125.328 37.0433
    vertex -56.3523 138.36 50.0756
  endloop
endfacet
facet normal 1.13586e-15 0.707107 -0.707107
  outer loop
    vertex -65.5679 131.82 43.5355
    vertex -56.3523 138.36 50.0756
    vertex -57.131 125.328 37.0433
  endloop
endfacet
facet normal -1.85031e-16 0.707107 -0.707107
  outer loop
    vertex -9 131.82 43.5355
    vertex -25.3178 138.629 50.3445
    vertex -9 141.804 53.5199
  endloop
endfacet
facet normal 2.77937e-16 0.707107 -0.707107
  outer loop
    vertex -36 149.497 61.2132
    vertex -25.3178 138.629 50.3445
    vertex -41.1239 141.173 52.8885
  endloop
endfacet
facet normal 0 0.707107 -0.707107
  outer loop
    vertex -54 149.497 61.2132
    vertex -36 149.497 61.2132
    vertex -41.1239 141.173 52.8885
  endloop
endfacet
facet normal 1.39564e-16 0.707107 -0.707107
  outer loop
    vertex -54 114.142 25.8579
    vertex -41.453 122.387 34.1028
    vertex -36 114.142 25.8579
  endloop
endfacet
facet normal -2.82851e-16 0.707107 -0.707107
  outer loop
    vertex 36 149.497 61.2132
    vertex 42.9791 139.966 51.6819
    vertex 26.607 141.964 53.6798
  endloop
endfacet
facet normal 1.30402e-16 0.707107 -0.707107
  outer loop
    vertex -18 149.497 61.2132
    vertex -9 141.804 53.5199
    vertex -25.3178 138.629 50.3445
  endloop
endfacet
facet normal 3.92728e-16 0.707107 -0.707107
  outer loop
    vertex -18 114.142 25.8579
    vertex -25.3013 124.959 36.6744
    vertex -9 121.835 33.5512
  endloop
endfacet
facet normal 6.17394e-17 0.707107 -0.707107
  outer loop
    vertex -9 131.82 43.5355
    vertex -9 121.835 33.5512
    vertex -25.3013 124.959 36.6744
  endloop
endfacet
facet normal 0 0.707107 -0.707107
  outer loop
    vertex 54 149.497 61.2132
    vertex 59.9044 139.496 51.212
    vertex 42.9791 139.966 51.6819
  endloop
endfacet
facet normal 1.39564e-16 0.707107 -0.707107
  outer loop
    vertex 54 114.142 25.8579
    vertex 61.8371 122.309 34.0249
    vertex 72 114.142 25.8579
  endloop
endfacet
facet normal 2.79128e-16 0.707107 -0.707107
  outer loop
    vertex 54 149.497 61.2132
    vertex 72 149.497 61.2132
    vertex 59.9044 139.496 51.212
  endloop
endfacet
facet normal -2.03515e-16 0.707107 -0.707107
  outer loop
    vertex -39.4279 131.88 43.5961
    vertex -25.3013 124.959 36.6744
    vertex -41.453 122.387 34.1028
  endloop
endfacet
facet normal 4.93209e-16 0.707107 -0.707107
  outer loop
    vertex -54 149.497 61.2132
    vertex -41.1239 141.173 52.8885
    vertex -56.3523 138.36 50.0756
  endloop
endfacet
facet normal 3.62856e-16 0.707107 -0.707107
  outer loop
    vertex -54 114.142 25.8579
    vertex -57.131 125.328 37.0433
    vertex -41.453 122.387 34.1028
  endloop
endfacet
facet normal 1.39564e-16 0.707107 -0.707107
  outer loop
    vertex 18 114.142 25.8579
    vertex 27.1139 122.079 33.7949
    vertex 36 114.142 25.8579
  endloop
endfacet
facet normal 0 0.707107 -0.707107
  outer loop
    vertex 18 149.497 61.2132
    vertex 36 149.497 61.2132
    vertex 26.607 141.964 53.6798
  endloop
endfacet
facet normal 1.39564e-16 0.707107 -0.707107
  outer loop
    vertex -18 114.142 25.8579
    vertex -9 121.835 33.5512
    vertex 8.52651e-14 114.142 25.8579
  endloop
endfacet
facet normal 0 0.707107 -0.707107
  outer loop
    vertex -18 149.497 61.2132
    vertex 8.52651e-14 149.497 61.2132
    vertex -9 141.804 53.5199
  endloop
endfacet
facet normal 3.17186e-16 0.707107 -0.707107
  outer loop
    vertex -39.4279 131.88 43.5961
    vertex -41.1239 141.173 52.8885
    vertex -25.3178 138.629 50.3445
  endloop
endfacet
facet normal -3.51849e-15 0.707107 -0.707107
  outer loop
    vertex 90 137.712 49.4281
    vertex 90 125.927 37.643
    vertex 80.0643 131.552 43.2679
  endloop
endfacet
facet normal 2.15271e-15 0.707107 -0.707107
  outer loop
    vertex -90 137.712 49.4281
    vertex -80.494 131.82 43.5355
    vertex -90 125.927 37.643
  endloop
endfacet
facet normal 5.2764e-16 0.707107 -0.707107
  outer loop
    vertex 72 114.142 25.8579
    vertex 61.8371 122.309 34.0249
    vertex 77.0053 123.237 34.953
  endloop
endfacet
facet normal -3.76505e-16 0.707107 -0.707107
  outer loop
    vertex 72 149.497 61.2132
    vertex 76.2846 139.801 51.5168
    vertex 59.9044 139.496 51.212
  endloop
endfacet
facet normal 0 0.707107 -0.707107
  outer loop
    vertex -65.5679 131.82 43.5355
    vertex -80.494 131.82 43.5355
    vertex -75.534 139.431 51.1464
  endloop
endfacet
facet normal 0 0.707107 -0.707107
  outer loop
    vertex -65.5679 131.82 43.5355
    vertex -75.534 124.209 35.9247
    vertex -80.494 131.82 43.5355
  endloop
endfacet
facet normal -4.11131e-16 0.707107 -0.707107
  outer loop
    vertex 67.0315 131.083 42.7986
    vertex 80.0643 131.552 43.2679
    vertex 77.0053 123.237 34.953
  endloop
endfacet
facet normal -3.39075e-16 0.707107 -0.707107
  outer loop
    vertex 67.0315 131.083 42.7986
    vertex 76.2846 139.801 51.5168
    vertex 80.0643 131.552 43.2679
  endloop
endfacet
facet normal -2.87131e-16 0.707107 -0.707107
  outer loop
    vertex 67.0315 131.083 42.7986
    vertex 59.9044 139.496 51.212
    vertex 76.2846 139.801 51.5168
  endloop
endfacet
facet normal 5.4842e-16 0.707107 -0.707107
  outer loop
    vertex 67.0315 131.083 42.7986
    vertex 77.0053 123.237 34.953
    vertex 61.8371 122.309 34.0249
  endloop
endfacet
facet normal 6.52601e-16 0.707107 -0.707107
  outer loop
    vertex -39.4279 131.88 43.5961
    vertex -56.3523 138.36 50.0756
    vertex -41.1239 141.173 52.8885
  endloop
endfacet
facet normal 1.94752e-16 0.707107 -0.707107
  outer loop
    vertex -39.4279 131.88 43.5961
    vertex -41.453 122.387 34.1028
    vertex -57.131 125.328 37.0433
  endloop
endfacet
facet normal 2.08983e-15 0.707107 -0.707107
  outer loop
    vertex -90 137.712 49.4281
    vertex -75.534 139.431 51.1464
    vertex -80.494 131.82 43.5355
  endloop
endfacet
facet normal -2.17218e-15 0.707107 -0.707107
  outer loop
    vertex 90 137.712 49.4281
    vertex 80.0643 131.552 43.2679
    vertex 76.2846 139.801 51.5168
  endloop
endfacet
facet normal 1.49627e-15 0.707107 -0.707107
  outer loop
    vertex -90 125.927 37.643
    vertex -80.494 131.82 43.5355
    vertex -75.534 124.209 35.9247
  endloop
endfacet
facet normal -2.64248e-15 0.707107 -0.707107
  outer loop
    vertex 90 125.927 37.643
    vertex 77.0053 123.237 34.953
    vertex 80.0643 131.552 43.2679
  endloop
endfacet
facet normal -1 -0 0
  outer loop
    vertex -90 139.394 58.9175
    vertex -90 124.657 50.6986
    vertex -90 132.998 65.9272
  endloop
endfacet
facet normal -1 0 0
  outer loop
    vertex -90 116.438 35.9609
    vertex -90 109.428 42.357
    vertex -90 124.657 50.6986
  endloop
endfacet
facet normal -1 0 0
  outer loop
    vertex -90 123.57 63.5702
    vertex -90 132.998 65.9272
    vertex -90 124.657 50.6986
  endloop
endfacet
facet normal -1 0 0
  outer loop
    vertex -90 137.712 49.4281
    vertex -90 124.657 50.6986
    vertex -90 139.394 58.9175
  endloop
endfacet
facet normal -1 -0 0
  outer loop
    vertex -90 125.927 37.643
    vertex -90 116.438 35.9609
    vertex -90 124.657 50.6986
  endloop
endfacet
facet normal -1 0 -0
  outer loop
    vertex -90 111.785 51.7851
    vertex -90 124.657 50.6986
    vertex -90 109.428 42.357
  endloop
endfacet
facet normal -1 -1.20583e-15 -1.20583e-15
  outer loop
    vertex -90 135.355 75.3553
    vertex -90 142.426 68.2843
    vertex -90 132.998 65.9272
  endloop
endfacet
facet normal -1 0 0
  outer loop
    vertex -90 100 40
    vertex -90 109.428 42.357
    vertex -90 107.071 32.9289
  endloop
endfacet
facet normal -1 3.72108e-16 -1.63761e-15
  outer loop
    vertex -90 149.497 61.2132
    vertex -90 139.394 58.9175
    vertex -90 142.426 68.2843
  endloop
endfacet
facet normal -1 0 0
  outer loop
    vertex -90 114.142 25.8579
    vertex -90 107.071 32.9289
    vertex -90 116.438 35.9609
  endloop
endfacet
facet normal -1 0 0
  outer loop
    vertex -90 111.785 51.7851
    vertex -90 123.57 63.5702
    vertex -90 124.657 50.6986
  endloop
endfacet
facet normal -1 -0 0
  outer loop
    vertex -90 137.712 49.4281
    vertex -90 125.927 37.643
    vertex -90 124.657 50.6986
  endloop
endfacet
facet normal -1 -1.22732e-15 -1.11989e-15
  outer loop
    vertex -90 142.426 68.2843
    vertex -90 139.394 58.9175
    vertex -90 132.998 65.9272
  endloop
endfacet
facet normal -1 0 0
  outer loop
    vertex -90 107.071 32.9289
    vertex -90 109.428 42.357
    vertex -90 116.438 35.9609
  endloop
endfacet
facet normal -1 0 0
  outer loop
    vertex -90 114.142 25.8579
    vertex -90 116.438 35.9609
    vertex -90 125.927 37.643
  endloop
endfacet
facet normal -1 0 0
  outer loop
    vertex -90 100 40
    vertex -90 111.785 51.7851
    vertex -90 109.428 42.357
  endloop
endfacet
facet normal -1 4.01944e-16 -1.60777e-15
  outer loop
    vertex -90 135.355 75.3553
    vertex -90 132.998 65.9272
    vertex -90 123.57 63.5702
  endloop
endfacet
facet normal -1 0 0
  outer loop
    vertex -90 149.497 61.2132
    vertex -90 137.712 49.4281
    vertex -90 139.394 58.9175
  endloop
endfacet
facet normal 1 0 0
  outer loop
    vertex 90 139.394 58.9175
    vertex 90 132.998 65.9272
    vertex 90 124.657 50.6986
  endloop
endfacet
facet normal 1 0 -0
  outer loop
    vertex 90 116.438 35.9609
    vertex 90 124.657 50.6986
    vertex 90 109.428 42.357
  endloop
endfacet
facet normal 1 0 -0
  outer loop
    vertex 90 137.712 49.4281
    vertex 90 139.394 58.9175
    vertex 90 124.657 50.6986
  endloop
endfacet
facet normal 1 -0 0
  outer loop
    vertex 90 123.57 63.5702
    vertex 90 124.657 50.6986
    vertex 90 132.998 65.9272
  endloop
endfacet
facet normal 1 0 0
  outer loop
    vertex 90 111.785 51.7851
    vertex 90 109.428 42.357
    vertex 90 124.657 50.6986
  endloop
endfacet
facet normal 1 0 0
  outer loop
    vertex 90 125.927 37.643
    vertex 90 124.657 50.6986
    vertex 90 116.438 35.9609
  endloop
endfacet
facet normal 1 1.20583e-15 1.20583e-15
  outer loop
    vertex 90 135.355 75.3553
    vertex 90 132.998 65.9272
    vertex 90 142.426 68.2843
  endloop
endfacet
facet normal 1 -0 0
  outer loop
    vertex 90 100 40
    vertex 90 107.071 32.9289
    vertex 90 109.428 42.357
  endloop
endfacet
facet normal 1 -3.72108e-16 1.63761e-15
  outer loop
    vertex 90 149.497 61.2132
    vertex 90 142.426 68.2843
    vertex 90 139.394 58.9175
  endloop
endfacet
facet normal 1 0 -0
  outer loop
    vertex 90 114.142 25.8579
    vertex 90 116.438 35.9609
    vertex 90 107.071 32.9289
  endloop
endfacet
facet normal 1 -0 0
  outer loop
    vertex 90 111.785 51.7851
    vertex 90 124.657 50.6986
    vertex 90 123.57 63.5702
  endloop
endfacet
facet normal 1 0 0
  outer loop
    vertex 90 137.712 49.4281
    vertex 90 124.657 50.6986
    vertex 90 125.927 37.643
  endloop
endfacet
facet normal 1 1.22732e-15 1.11989e-15
  outer loop
    vertex 90 142.426 68.2843
    vertex 90 132.998 65.9272
    vertex 90 139.394 58.9175
  endloop
endfacet
facet normal 1 0 0
  outer loop
    vertex 90 107.071 32.9289
    vertex 90 116.438 35.9609
    vertex 90 109.428 42.357
  endloop
endfacet
facet normal 1 0 0
  outer loop
    vertex 90 114.142 25.8579
    vertex 90 125.927 37.643
    vertex 90 116.438 35.9609
  endloop
endfacet
facet normal 1 0 0
  outer loop
    vertex 90 100 40
    vertex 90 109.428 42.357
    vertex 90 111.785 51.7851
  endloop
endfacet
facet normal 1 -4.01944e-16 1.60777e-15
  outer loop
    vertex 90 135.355 75.3553
    vertex 90 123.57 63.5702
    vertex 90 132.998 65.9272
  endloop
endfacet
facet normal 1 0 0
  outer loop
    vertex 90 149.497 61.2132
    vertex 90 139.394 58.9175
    vertex 90 137.712 49.4281
  endloop
endfacet
endsolid Created by Gmsh
